<svg width="100" height="100" viewBox="0 0 100 100" fill="none" xmlns="http://www.w3.org/2000/svg">
<path d="M49.9998 55.8334L29.5832 76.25C28.8193 77.0139 27.8471 77.3959 26.6665 77.3959C25.4859 77.3959 24.5137 77.0139 23.7498 76.25C22.9859 75.4861 22.604 74.5139 22.604 73.3334C22.604 72.1528 22.9859 71.1806 23.7498 70.4167L44.1665 50L23.7498 29.5834C22.9859 28.8195 22.604 27.8472 22.604 26.6667C22.604 25.4861 22.9859 24.5139 23.7498 23.75C24.5137 22.9861 25.4859 22.6042 26.6665 22.6042C27.8471 22.6042 28.8193 22.9861 29.5832 23.75L49.9998 44.1667L70.4165 23.75C71.1804 22.9861 72.1526 22.6042 73.3332 22.6042C74.5137 22.6042 75.4859 22.9861 76.2498 23.75C77.0137 24.5139 77.3957 25.4861 77.3957 26.6667C77.3957 27.8472 77.0137 28.8195 76.2498 29.5834L55.8332 50L76.2498 70.4167C77.0137 71.1806 77.3957 72.1528 77.3957 73.3334C77.3957 74.5139 77.0137 75.4861 76.2498 76.25C75.4859 77.0139 74.5137 77.3959 73.3332 77.3959C72.1526 77.3959 71.1804 77.0139 70.4165 76.25L49.9998 55.8334Z" fill="#FFA9DC"/>
</svg>
