<svg width="48" height="48" viewBox="0 0 48 48" fill="none" xmlns="http://www.w3.org/2000/svg">
<g clip-path="url(#clip0_11_178)">
<path d="M13.5344 33.0974C13.146 33.0974 12.7735 33.2517 12.4989 33.5263C12.2242 33.8009 12.07 34.1734 12.07 34.5618V40.4194C12.07 40.8077 12.2242 41.1802 12.4989 41.4548C12.7735 41.7295 13.146 41.8837 13.5344 41.8837C13.9227 41.8837 14.2952 41.7295 14.5698 41.4548C14.8445 41.1802 14.9987 40.8077 14.9987 40.4194V39.9332H15.974C16.8805 39.9332 17.7499 39.5731 18.3908 38.9321C19.0318 38.2911 19.3919 37.4218 19.3919 36.5153C19.3919 35.6088 19.0318 34.7395 18.3908 34.0985C17.7499 33.4575 16.8805 33.0974 15.974 33.0974H13.5344ZM15.974 37.0044H14.9987V36.0262H15.974C16.1037 36.0262 16.2282 36.0777 16.3199 36.1694C16.4116 36.2612 16.4631 36.3856 16.4631 36.5153C16.4631 36.645 16.4116 36.7694 16.3199 36.8611C16.2282 36.9529 16.1037 37.0044 15.974 37.0044ZM29.6456 34.5589C29.6463 34.171 29.801 33.7993 30.0755 33.5253C30.3501 33.2513 30.7221 33.0974 31.11 33.0974H34.0329C34.4213 33.0974 34.7937 33.2517 35.0684 33.5263C35.343 33.8009 35.4973 34.1734 35.4973 34.5618C35.4973 34.9502 35.343 35.3226 35.0684 35.5973C34.7937 35.8719 34.4213 36.0262 34.0329 36.0262H32.5685V37.0073H34.0329C34.4213 37.0073 34.7937 37.1616 35.0684 37.4362C35.343 37.7109 35.4973 38.0833 35.4973 38.4717C35.4973 38.8601 35.343 39.2326 35.0684 39.5072C34.7937 39.7818 34.4213 39.9361 34.0329 39.9361H32.5714V40.4164C32.5718 40.6087 32.5343 40.7992 32.4611 40.977C32.3878 41.1549 32.2803 41.3165 32.1446 41.4528C31.8705 41.7279 31.4983 41.883 31.11 41.8837C30.7216 41.8845 30.3488 41.731 30.0736 41.4569C29.7984 41.1828 29.6434 40.8107 29.6426 40.4223V34.5589H29.6456ZM22.3148 33.0974C21.9265 33.0974 21.554 33.2517 21.2794 33.5263C21.0047 33.8009 20.8504 34.1734 20.8504 34.5618V40.4194C20.8504 40.8077 21.0047 41.1802 21.2794 41.4548C21.554 41.7295 21.9265 41.8837 22.3148 41.8837H23.7851C24.9502 41.8837 26.0676 41.4209 26.8915 40.597C27.7154 39.7731 28.1782 38.6557 28.1782 37.4906C28.1782 36.3254 27.7154 35.208 26.8915 34.3841C26.0676 33.5603 24.9502 33.0974 23.7851 33.0974H22.3148ZM23.7792 38.955V36.0262H23.7851C24.1735 36.0262 24.5459 36.1805 24.8206 36.4551C25.0952 36.7297 25.2495 37.1022 25.2495 37.4906C25.2495 37.879 25.0952 38.2514 24.8206 38.5261C24.5459 38.8007 24.1735 38.955 23.7851 38.955H23.7792ZM9.14118 16.9862V27.4771C8.28382 27.7802 7.54164 28.3419 7.01706 29.0847C6.49247 29.8275 6.21132 30.7148 6.21241 31.6242V43.3481C6.21241 44.5133 6.67526 45.6307 7.49913 46.4546C8.32301 47.2785 9.44043 47.7413 10.6056 47.7413H36.9646C38.1297 47.7413 39.2471 47.2785 40.071 46.4546C40.8949 45.6307 41.3578 44.5133 41.3578 43.3481V31.6213C41.3582 30.7124 41.0768 29.8258 40.5523 29.0835C40.0277 28.3413 39.2859 27.78 38.429 27.4771V22.586C38.4296 22.0078 38.3161 21.4352 38.095 20.9009C37.8738 20.3667 37.5494 19.8813 37.1403 19.4727L31.5288 13.8788C30.7052 13.0557 29.5886 12.5933 28.4243 12.593H13.5344C12.3692 12.593 11.2518 13.0559 10.4279 13.8797C9.60404 14.7036 9.14118 15.821 9.14118 16.9862ZM13.5344 15.5218H26.7139V19.9091C26.7139 21.0742 27.1767 22.1917 28.0006 23.0155C28.8245 23.8394 29.9419 24.3023 31.107 24.3023H35.5002V27.2281H12.07V16.9862C12.07 16.5978 12.2242 16.2253 12.4989 15.9507C12.7735 15.6761 13.146 15.5218 13.5344 15.5218ZM29.6426 16.131L34.8969 21.3735H31.107C30.7186 21.3735 30.3462 21.2192 30.0715 20.9446C29.7969 20.67 29.6426 20.2975 29.6426 19.9091V16.131ZM10.6056 30.1598H36.9646C37.353 30.1598 37.7254 30.3141 38.0001 30.5887C38.2747 30.8634 38.429 31.2358 38.429 31.6242V43.3481C38.429 43.7365 38.2747 44.109 38.0001 44.3836C37.7254 44.6582 37.353 44.8125 36.9646 44.8125H10.6056C10.2172 44.8125 9.84472 44.6582 9.57009 44.3836C9.29547 44.109 9.14118 43.7365 9.14118 43.3481V31.6213C9.14118 31.2329 9.29547 30.8604 9.57009 30.5858C9.84472 30.3112 10.2172 30.1569 10.6056 30.1569V30.1598Z" fill="#B46EFB"/>
</g>
<defs>
<clipPath id="clip0_11_178">
<rect width="46.8605" height="46.8605" fill="white" transform="translate(0.354492 0.87207)"/>
</clipPath>
</defs>
</svg>
