<svg width="48" height="48" viewBox="0 0 48 48" fill="none" xmlns="http://www.w3.org/2000/svg">
<g clip-path="url(#clip0_11_176)">
<path d="M8.59399 15.2231C8.59399 15.2231 7.58649 16.9907 7.58649 19.9824C7.58649 21.9667 8.03899 23.0137 8.36408 23.5526C6.07817 25.9308 4.65771 29.1568 4.65771 33.2981C4.65771 43.9047 11.3793 47.4397 23.6948 47.4397C36.0103 47.4397 42.7318 43.9047 42.7318 33.2996C42.7318 29.0148 41.3934 25.7946 39.2085 23.4603C40.1117 20.7641 39.9812 17.8286 38.8424 15.2231C34.2999 15.2231 30.513 18.7128 30.3753 18.8387C28.1794 18.3719 25.9398 18.1416 23.6948 18.1519C21.3444 18.1519 19.038 18.4375 16.8766 18.9764C13.8336 15.9583 10.1609 15.2231 8.59399 15.2231ZM30.5598 30.5084C31.7943 30.4967 32.9395 30.5992 33.9455 30.9185C36.6283 31.7722 38.3387 34.2368 38.3387 37.0059C38.3387 44.6706 34.2252 45.9753 23.6948 45.9753C15.8691 45.9753 9.50777 44.5973 9.50777 37.2798C9.50777 34.4887 11.0249 32.91 12.1173 31.926C14.5189 29.7645 18.3117 30.8277 23.6948 30.8277C26.1432 30.8277 28.4936 30.5304 30.5598 30.507V30.5084ZM15.6406 34.2602C14.4281 34.2602 13.4441 35.5708 13.4441 37.189C13.4441 38.8071 14.4281 40.1178 15.6406 40.1178C16.8532 40.1178 17.8372 38.8071 17.8372 37.189C17.8372 35.5708 16.8532 34.2602 15.6406 34.2602ZM31.7489 34.2602C30.5364 34.2602 29.5523 35.5708 29.5523 37.189C29.5523 38.8071 30.5364 40.1178 31.7489 40.1178C32.9614 40.1178 33.9455 38.8071 33.9455 37.189C33.9455 35.5708 32.9614 34.2602 31.7489 34.2602ZM15.4122 35.4962C15.7549 35.4962 16.0067 35.7876 16.0067 36.1361C16.0067 36.4861 15.7549 36.7775 15.4122 36.7775C15.2428 36.7752 15.081 36.7069 14.9612 36.5871C14.8414 36.4673 14.7731 36.3055 14.7708 36.1361C14.7708 35.7876 15.0681 35.4962 15.4122 35.4962ZM31.5205 35.4962C31.8631 35.4962 32.115 35.7876 32.115 36.1361C32.115 36.4861 31.8631 36.7775 31.5205 36.7775C31.3511 36.7752 31.1892 36.7069 31.0695 36.5871C30.9497 36.4673 30.8813 36.3055 30.8791 36.1361C30.8791 35.7876 31.1763 35.4962 31.5205 35.4962Z" fill="#B46EFB"/>
</g>
<defs>
<clipPath id="clip0_11_176">
<rect width="46.8605" height="46.8605" fill="white" transform="translate(0.264648 0.87207)"/>
</clipPath>
</defs>
</svg>
