<svg width="50" height="50" viewBox="0 0 50 50" fill="none" xmlns="http://www.w3.org/2000/svg">
<path d="M39.379 5.20837H10.6207C10.3307 5.20841 10.0439 5.26898 9.77867 5.38622C9.51343 5.50346 9.2756 5.67478 9.08038 5.88922C8.88516 6.10366 8.73686 6.35649 8.64496 6.63153C8.55307 6.90658 8.51961 7.19778 8.54672 7.4865L11.3467 37.3469C11.3806 37.7103 11.5094 38.0585 11.7202 38.3565C11.931 38.6545 12.2164 38.8918 12.5478 39.0448L24.1269 44.3886C24.4006 44.5149 24.6984 44.5803 24.9999 44.5803C25.3013 44.5803 25.5991 44.5149 25.8728 44.3886L37.4519 39.0448C37.7835 38.892 38.0691 38.6547 38.2801 38.3567C38.4911 38.0587 38.62 37.7105 38.654 37.3469L41.453 7.4865C41.4801 7.19778 41.4466 6.90658 41.3547 6.63153C41.2628 6.35649 41.1145 6.10366 40.9193 5.88922C40.7241 5.67478 40.4863 5.50346 40.221 5.38622C39.9558 5.26898 39.669 5.20841 39.379 5.20837Z" stroke="#B46EFB" stroke-width="2.9375"/>
<path d="M33.3332 12.5001H16.6665L17.7082 21.8751H32.2915L31.2498 33.3335L24.9998 36.4585L18.7498 33.3335L18.229 28.1251" stroke="#B46EFB" stroke-width="2.9375" stroke-linecap="round" stroke-linejoin="round"/>
</svg>
