<svg width="50" height="50" viewBox="0 0 50 50" fill="none" xmlns="http://www.w3.org/2000/svg">
<path d="M41.3333 8L37.1667 38.2083L24.6667 42.375L12.1667 38.2083L8 8H41.3333Z" stroke="#B46EFB" stroke-width="3.125" stroke-linecap="round" stroke-linejoin="round"/>
<path d="M15.292 16.3334H21.542V33L17.3753 30.9167M34.042 16.3334H28.8337C28.5574 16.3334 28.2924 16.4431 28.0971 16.6385C27.9017 16.8338 27.792 17.0988 27.792 17.375V23.625C27.792 23.9013 27.9017 24.1663 28.0971 24.3616C28.2924 24.557 28.5574 24.6667 28.8337 24.6667H31.7982C31.9473 24.6667 32.0947 24.6988 32.2304 24.7606C32.366 24.8225 32.4868 24.9128 32.5846 25.0254C32.6823 25.1379 32.7548 25.2702 32.7971 25.4132C32.8393 25.5562 32.8504 25.7066 32.8295 25.8542L31.9587 31.9584L27.792 33" stroke="#B46EFB" stroke-width="3.125" stroke-linecap="round" stroke-linejoin="round"/>
</svg>
