<svg width="48" height="48" viewBox="0 0 48 48" fill="none" xmlns="http://www.w3.org/2000/svg">
<g clip-path="url(#clip0_11_180)">
<path fill-rule="evenodd" clip-rule="evenodd" d="M18.5844 21.8989H25.836V25.511C26.8806 23.4335 29.5595 21.5669 33.5836 21.5669C41.298 21.5669 43.1295 25.7024 43.1295 33.2899V47.3421H35.3194V35.0178C35.3194 30.6969 34.2748 28.2602 31.6155 28.2602C27.9272 28.2602 26.3944 30.8863 26.3944 35.0159V47.3421H18.5844V21.8989ZM5.19204 47.0102H13.0021V21.5669H5.19204V47.0102ZM14.1209 13.2707C14.1212 13.9253 13.9914 14.5735 13.739 15.1775C13.4866 15.7815 13.1166 16.3293 12.6507 16.7891C11.7064 17.7275 10.4283 18.2528 9.09708 18.2496C7.76817 18.2487 6.49302 17.7248 5.5474 16.7911C5.08311 16.3297 4.71442 15.7813 4.46247 15.1772C4.21051 14.5731 4.08023 13.9252 4.0791 13.2707C4.0791 11.9488 4.60628 10.6836 5.54935 9.75028C6.49414 8.81533 7.76983 8.29116 9.09903 8.29175C10.4306 8.29175 11.7076 8.81698 12.6507 9.75028C13.5918 10.6836 14.1209 11.9488 14.1209 13.2707Z" fill="#B46EFB"/>
</g>
<defs>
<clipPath id="clip0_11_180">
<rect width="46.8605" height="46.8605" fill="white" transform="translate(0.174316 0.87207)"/>
</clipPath>
</defs>
</svg>
