<svg width="83" height="82" viewBox="0 0 83 82" fill="none" xmlns="http://www.w3.org/2000/svg">
<circle cx="41.9199" cy="41" r="40.5" stroke="#F925A2"/>
<path d="M55.4502 26.24C57.0813 26.24 58.6456 26.8879 59.7989 28.0413C60.9523 29.1946 61.6002 30.7589 61.6002 32.39V52.07C61.6002 53.7011 60.9523 55.2653 59.7989 56.4187C58.6456 57.572 57.0813 58.22 55.4502 58.22H28.3902C26.7592 58.22 25.1949 57.572 24.0415 56.4187C22.8882 55.2653 22.2402 53.7011 22.2402 52.07V32.39C22.2402 30.7589 22.8882 29.1946 24.0415 28.0413C25.1949 26.8879 26.7592 26.24 28.3902 26.24H55.4502ZM59.1402 35.9841L42.5451 45.7502C42.3882 45.8424 42.2128 45.8985 42.0316 45.9147C41.8504 45.9309 41.6678 45.9066 41.4971 45.8437L41.2954 45.7502L24.7002 35.989V52.07C24.7002 53.0486 25.089 53.9872 25.781 54.6792C26.473 55.3712 27.4116 55.76 28.3902 55.76H55.4502C56.4289 55.76 57.3674 55.3712 58.0595 54.6792C58.7515 53.9872 59.1402 53.0486 59.1402 52.07V35.9841ZM55.4502 28.7H28.3902C27.4116 28.7 26.473 29.0888 25.781 29.7808C25.089 30.4728 24.7002 31.4113 24.7002 32.39V33.1329L41.9202 43.2632L59.1402 33.128V32.39C59.1402 31.4113 58.7515 30.4728 58.0595 29.7808C57.3674 29.0888 56.4289 28.7 55.4502 28.7Z" fill="#F925A2"/>
</svg>
