<svg width="82" height="82" viewBox="0 0 82 82" fill="none" xmlns="http://www.w3.org/2000/svg">
<circle cx="41" cy="41" r="40.5" stroke="#FFC700"/>
<g clip-path="url(#clip0_49_155)">
<path d="M50.225 19.4749C51.0405 19.4749 51.8227 19.7989 52.3994 20.3755C52.976 20.9522 53.3 21.7344 53.3 22.5499V59.4499C53.3 60.2654 52.976 61.0476 52.3994 61.6243C51.8227 62.2009 51.0405 62.5249 50.225 62.5249H31.775C30.9595 62.5249 30.1773 62.2009 29.6006 61.6243C29.024 61.0476 28.7 60.2654 28.7 59.4499V22.5499C28.7 21.7344 29.024 20.9522 29.6006 20.3755C30.1773 19.7989 30.9595 19.4749 31.775 19.4749H50.225ZM31.775 16.3999C30.1439 16.3999 28.5796 17.0478 27.4263 18.2012C26.2729 19.3545 25.625 20.9188 25.625 22.5499V59.4499C25.625 61.081 26.2729 62.6453 27.4263 63.7986C28.5796 64.952 30.1439 65.5999 31.775 65.5999H50.225C51.8561 65.5999 53.4204 64.952 54.5737 63.7986C55.7271 62.6453 56.375 61.081 56.375 59.4499V22.5499C56.375 20.9188 55.7271 19.3545 54.5737 18.2012C53.4204 17.0478 51.8561 16.3999 50.225 16.3999H31.775Z" fill="#FFC700"/>
<path d="M40.9998 59.45C41.8153 59.45 42.5975 59.1261 43.1742 58.5494C43.7508 57.9727 44.0748 57.1906 44.0748 56.375C44.0748 55.5595 43.7508 54.7774 43.1742 54.2007C42.5975 53.624 41.8153 53.3 40.9998 53.3C40.1843 53.3 39.4021 53.624 38.8255 54.2007C38.2488 54.7774 37.9248 55.5595 37.9248 56.375C37.9248 57.1906 38.2488 57.9727 38.8255 58.5494C39.4021 59.1261 40.1843 59.45 40.9998 59.45Z" fill="#FFC700"/>
</g>
<defs>
<clipPath id="clip0_49_155">
<rect width="49.2" height="49.2" fill="white" transform="translate(16.3999 16.3999)"/>
</clipPath>
</defs>
</svg>
