<svg width="83" height="82" viewBox="0 0 83 82" fill="none" xmlns="http://www.w3.org/2000/svg">
<circle cx="41.8398" cy="41" r="40.5" stroke="#9B3EF8"/>
<path d="M56.8661 26.2294C54.9465 24.3001 52.6601 22.7703 50.1401 21.7295C47.6201 20.6886 44.917 20.1574 42.1886 20.1669C30.7564 20.1669 21.439 29.4377 21.439 40.8127C21.439 44.4585 22.4021 48.0002 24.2028 51.1252L21.2715 61.8335L32.2639 58.9585C35.3 60.6044 38.7129 61.4794 42.1886 61.4794C53.6207 61.4794 62.9382 52.2085 62.9382 40.8335C62.9382 35.3127 60.7815 30.1252 56.8661 26.2294V26.2294ZM42.1886 57.9794C39.0897 57.9794 36.0537 57.146 33.3946 55.5835L32.7665 55.2085L26.2338 56.9169L27.9717 50.5835L27.5529 49.9377C25.8313 47.2022 24.9171 44.0403 24.9147 40.8127C24.9147 31.3544 32.6618 23.646 42.1676 23.646C46.774 23.646 51.1082 25.4377 54.3536 28.6877C55.9605 30.2793 57.234 32.1724 58.1002 34.2573C58.9664 36.3423 59.4081 38.5775 59.3996 40.8335C59.4415 50.2919 51.6944 57.9794 42.1886 57.9794V57.9794ZM51.6526 45.146C51.1291 44.896 48.5747 43.646 48.114 43.4585C47.6325 43.2919 47.2974 43.2085 46.9415 43.7085C46.5856 44.2294 45.6015 45.396 45.3083 45.7294C45.0152 46.0835 44.7011 46.1252 44.1777 45.8544C43.6542 45.6044 41.9792 45.0419 40.011 43.2919C38.4616 41.9169 37.4356 40.2294 37.1216 39.7085C36.8284 39.1877 37.0797 38.9169 37.3519 38.646C37.5822 38.4169 37.8753 38.0419 38.1266 37.7502C38.3778 37.4585 38.4825 37.2294 38.65 36.896C38.8175 36.5419 38.7338 36.2502 38.6082 36.0002C38.4825 35.7502 37.4356 33.2085 37.0169 32.1669C36.5981 31.1669 36.1584 31.2919 35.8443 31.271H34.8393C34.4834 31.271 33.939 31.396 33.4574 31.9169C32.9968 32.4377 31.6567 33.6877 31.6567 36.2294C31.6567 38.771 33.5202 41.2294 33.7715 41.5627C34.0227 41.9169 37.4356 47.1252 42.6283 49.3544C43.8636 49.896 44.8268 50.2085 45.5805 50.4377C46.8159 50.8335 47.9465 50.771 48.8469 50.646C49.8519 50.5002 51.9247 49.396 52.3435 48.1877C52.7832 46.9794 52.7832 45.9585 52.6366 45.7294C52.4901 45.5002 52.176 45.396 51.6526 45.146V45.146Z" fill="#9B3EF8"/>
</svg>
